<?xml version="1.0" encoding="iso-8859-1"?>
<!-- Generator: Adobe Illustrator 19.0.0, SVG Export Plug-In . SVG Version: 6.00 Build 0)  -->
<svg version="1.1" xmlns="http://www.w3.org/2000/svg" xmlns:xlink="http://www.w3.org/1999/xlink" x="0px" y="0px"
	 viewBox="0 0 512 512" style="enable-background:new 0 0 512 512;" xml:space="preserve">
<g id="_x32_8._arrow_left_x2C__hand_x2C__hands_and_gestures_x2C__gestures_x2C__sign">
	<g id="XMLID_5976_">
		<g id="XMLID_5993_">
			<g id="XMLID_5994_">
				<g id="XMLID_6012_">
					<g id="XMLID_6018_">
						<rect id="XMLID_6019_" x="436" y="176" style="fill:#FF641A;" width="50" height="240"/>
					</g>
					<g id="XMLID_6013_">
						<g id="XMLID_193_">
							<path id="XMLID_194_" style="fill:#FDCDBF;" d="M256,376h-20c-16.57,0-30-13.43-30-30s13.43-30,30-30
								c-16.57,0-30-13.43-30-30s13.43-30,30-30H56c-16.57,0-30-13.43-30-30s13.43-30,30-30h251.57l-52.1-54.33
								c-12.67-12.78-12.62-33.38,0.1-46.1c12.324-12.324,32.148-12.803,45.05-1.1L387.57,176H436v240h-30l-50,20H256
								c-16.57,0-30-13.43-30-30S239.43,376,256,376z"/>
						</g>
					</g>
				</g>
				<g id="XMLID_5995_">
					<g id="XMLID_6010_">
						<path id="XMLID_6011_" d="M356,446H256c-22.056,0-40-17.944-40-40c0-8.228,2.496-15.882,6.773-22.247
							C207.197,378.279,196,363.423,196,346c0-11.934,5.254-22.665,13.57-30c-14.497-12.787-17.624-33.746-8.202-50H56
							c-22.056,0-40-17.944-40-40s17.944-40,40-40h228.126l-35.821-37.354c-16.43-16.641-16.349-43.603,0.194-60.146
							c16.485-16.483,42.51-16.395,58.962-1.324L391.525,166H436c5.523,0,10,4.478,10,10c0,5.523-4.477,10-10,10h-48.43
							c-2.541,0-4.986-0.967-6.84-2.705l-86.882-81.467c-8.79-7.922-22.516-7.878-31.207,0.813c-8.8,8.8-8.832,23.149-0.069,31.988
							c1.281,1.281-5.039-5.257,52.216,54.449c2.773,2.892,3.552,7.159,1.98,10.845c-1.572,3.685-5.192,6.076-9.198,6.076H56
							c-11.028,0-20,8.972-20,20c0,11.028,8.972,20,20,20h180c5.523,0,10,4.478,10,10s-4.477,10-10,10c-11.028,0-20,8.972-20,20
							c0,11.028,8.972,20,20,20c5.523,0,10,4.478,10,10s-4.477,10-10,10c-11.028,0-20,8.972-20,20c0,11.028,8.972,20,20,20h20
							c5.523,0,10,4.478,10,10s-4.477,10-10,10c-11.028,0-20,8.972-20,20c0,11.028,8.972,20,20,20h98.074l48.212-19.285
							c1.181-0.472,2.441-0.715,3.714-0.715h30c5.523,0,10,4.478,10,10s-4.477,10-10,10h-28.074l-48.212,19.285
							C358.533,445.757,357.272,446,356,446z"/>
					</g>
					<g id="XMLID_6006_">
						<path id="XMLID_6007_" d="M486,426h-50c-5.523,0-10-4.478-10-10V176c0-5.522,4.477-10,10-10h50c5.523,0,10,4.478,10,10v240
							C496,421.522,491.523,426,486,426z M446,406h30V186h-30V406z"/>
					</g>
					<g id="XMLID_6004_">
						<path id="XMLID_6005_" d="M286,386h-30c-5.523,0-10-4.478-10-10s4.477-10,10-10h30c5.523,0,10,4.478,10,10
							S291.523,386,286,386z"/>
					</g>
					<g id="XMLID_6002_">
						<path id="XMLID_6003_" d="M286,326h-50c-5.523,0-10-4.478-10-10s4.477-10,10-10h50c5.523,0,10,4.478,10,10
							S291.523,326,286,326z"/>
					</g>
					<g id="XMLID_6000_">
						<path id="XMLID_6001_" d="M286,266h-50c-5.523,0-10-4.478-10-10s4.477-10,10-10h50c5.523,0,10,4.478,10,10
							S291.523,266,286,266z"/>
					</g>
					<g id="XMLID_5998_">
						<path id="XMLID_5999_" d="M52.359,143.071l-30-30c-3.905-3.905-3.905-10.237,0-14.143l30-30
							c3.905-3.904,10.237-3.904,14.143,0c3.905,3.905,3.905,10.237,0,14.143L43.572,106l22.929,22.929
							c3.905,3.905,3.905,10.237,0,14.143C62.595,146.976,56.264,146.975,52.359,143.071z"/>
					</g>
					<g id="XMLID_5996_">
						<path id="XMLID_5997_" d="M176,116H29.43c-5.523,0-10-4.478-10-10s4.477-10,10-10H176c5.523,0,10,4.478,10,10
							S181.523,116,176,116z"/>
					</g>
				</g>
			</g>
		</g>
	</g>
</g>
<g id="Layer_1">
</g>
</svg>
