<?xml version="1.0" encoding="iso-8859-1"?>
<!-- Generator: Adobe Illustrator 19.0.0, SVG Export Plug-In . SVG Version: 6.00 Build 0)  -->
<svg version="1.1" xmlns="http://www.w3.org/2000/svg" xmlns:xlink="http://www.w3.org/1999/xlink" x="0px" y="0px"
	 viewBox="0 0 512 512" style="enable-background:new 0 0 512 512;" xml:space="preserve">
<g id="_x33_7_x2C__arrow_right_x2C__hand_x2C__hands_and_gestures_x2C__gestures_x2C__sign">
	<g id="XMLID_6694_">
		<g id="XMLID_6713_">
			<g id="XMLID_6714_">
				<g id="XMLID_6732_">
					<g id="XMLID_6738_">
						<g id="XMLID_271_">
							<path id="XMLID_272_" style="fill:#FDCDBF;" d="M306,316c16.57,0,30,13.43,30,30s-13.43,30-30,30h-20c16.57,0,30,13.43,30,30
								s-13.43,30-30,30H156l-50-20H76V176h48.43l86.95-81.53c12.909-11.709,32.733-11.217,45.05,1.1
								c12.72,12.72,12.77,33.32,0.1,46.1L204.43,196H456c16.57,0,30,13.43,30,30s-13.43,30-30,30H306c16.57,0,30,13.43,30,30
								S322.57,316,306,316z"/>
						</g>
					</g>
					<g id="XMLID_6733_">
						<g id="XMLID_356_">
							<rect id="XMLID_357_" x="26" y="176" style="fill:#3AAAFF;" width="50" height="240"/>
						</g>
					</g>
				</g>
				<g id="XMLID_6715_">
					<g id="XMLID_6730_">
						<path id="XMLID_6731_" d="M286,446H156c-1.272,0-2.533-0.243-3.714-0.715L104.074,426H76c-5.523,0-10-4.478-10-10
							s4.477-10,10-10h30c1.272,0,2.533,0.243,3.714,0.715L157.926,426H286c11.028,0,20-8.972,20-20c0-11.028-8.972-20-20-20
							c-5.523,0-10-4.478-10-10s4.477-10,10-10h20c11.028,0,20-8.972,20-20c0-11.028-8.972-20-20-20c-5.523,0-10-4.478-10-10
							s4.477-10,10-10c11.028,0,20-8.972,20-20c0-11.028-8.972-20-20-20c-5.523,0-10-4.478-10-10s4.477-10,10-10h150
							c11.028,0,20-8.972,20-20c0-11.028-8.972-20-20-20H204.43c-4.006,0-7.626-2.392-9.198-6.076
							c-1.572-3.686-0.792-7.953,1.98-10.845c61.505-64.138,50.937-53.17,52.216-54.449c8.762-8.839,8.731-23.189-0.069-31.988
							c-8.699-8.7-22.424-8.729-31.207-0.813l-86.882,81.467c-1.854,1.738-4.299,2.705-6.84,2.705H76c-5.523,0-10-4.477-10-10
							c0-5.522,4.477-10,10-10h44.475l84.065-78.825c16.458-15.076,42.485-15.15,58.962,1.324
							c16.543,16.544,16.624,43.506,0.194,60.146L227.875,186H456c22.056,0,40,17.944,40,40s-17.944,40-40,40H340.632
							c9.428,16.263,6.288,37.22-8.202,50c8.316,7.335,13.57,18.066,13.57,30c0,17.423-11.197,32.279-26.772,37.753
							C323.504,390.118,326,397.772,326,406C326,428.055,308.056,446,286,446z"/>
					</g>
					<g id="XMLID_6726_">
						<path id="XMLID_6727_" d="M76,426H26c-5.523,0-10-4.478-10-10V176c0-5.522,4.477-10,10-10h50c5.523,0,10,4.478,10,10v240
							C86,421.522,81.523,426,76,426z M36,406h30V186H36V406z"/>
					</g>
					<g id="XMLID_6724_">
						<path id="XMLID_6725_" d="M286,386h-30c-5.523,0-10-4.478-10-10s4.477-10,10-10h30c5.523,0,10,4.478,10,10
							S291.523,386,286,386z"/>
					</g>
					<g id="XMLID_6722_">
						<path id="XMLID_6723_" d="M306,326h-50c-5.523,0-10-4.478-10-10s4.477-10,10-10h50c5.523,0,10,4.478,10,10
							S311.523,326,306,326z"/>
					</g>
					<g id="XMLID_6720_">
						<path id="XMLID_6721_" d="M306,266h-50c-5.523,0-10-4.478-10-10s4.477-10,10-10h50c5.523,0,10,4.478,10,10
							S311.523,266,306,266z"/>
					</g>
					<g id="XMLID_6718_">
						<path id="XMLID_6719_" d="M445.499,143.071c-3.905-3.905-3.905-10.237,0-14.143L468.428,106l-22.929-22.929
							c-3.905-3.905-3.905-10.237,0-14.143c3.905-3.904,10.237-3.904,14.143,0l30,30c3.905,3.905,3.905,10.237,0,14.143l-30,30
							C455.735,146.977,449.404,146.975,445.499,143.071z"/>
					</g>
					<g id="XMLID_6716_">
						<path id="XMLID_6717_" d="M482.57,116H336c-5.523,0-10-4.478-10-10s4.477-10,10-10h146.57c5.523,0,10,4.478,10,10
							S488.093,116,482.57,116z"/>
					</g>
				</g>
			</g>
		</g>
	</g>
</g>
<g id="Layer_1">
</g>
</svg>
